<svg id="icons" xmlns="http://www.w3.org/2000/svg" viewBox="0 0 25 200"><defs><style>.cls-1{fill:#059ff6;}.cls-2{fill:#c3372d;}</style></defs><title>Nightly Blog icons</title><path class="cls-1" d="M20.21,185.61c0,.16,0,.33,0,.49A10.7,10.7,0,0,1,9.45,196.88a10.7,10.7,0,0,1-5.81-1.7,7.83,7.83,0,0,0,.91,0,7.58,7.58,0,0,0,4.7-1.62A3.79,3.79,0,0,1,5.71,191a4.77,4.77,0,0,0,.71.06,4,4,0,0,0,1-.13,3.79,3.79,0,0,1-3-3.71v0a3.81,3.81,0,0,0,1.71.48,3.79,3.79,0,0,1-1.17-5.06,10.76,10.76,0,0,0,7.8,4,4.27,4.27,0,0,1-.09-.87,3.79,3.79,0,0,1,6.55-2.59,7.45,7.45,0,0,0,2.4-.91,3.77,3.77,0,0,1-1.66,2.09,7.59,7.59,0,0,0,2.18-.59A8.14,8.14,0,0,1,20.21,185.61Z"/><path d="M20.21,165.61c0,.16,0,.33,0,.49A10.7,10.7,0,0,1,9.45,176.88a10.7,10.7,0,0,1-5.81-1.7,7.83,7.83,0,0,0,.91,0,7.58,7.58,0,0,0,4.7-1.62A3.79,3.79,0,0,1,5.71,171a4.77,4.77,0,0,0,.71.06,4,4,0,0,0,1-.13,3.79,3.79,0,0,1-3-3.71v0a3.81,3.81,0,0,0,1.71.48,3.79,3.79,0,0,1-1.17-5.06,10.76,10.76,0,0,0,7.8,4,4.27,4.27,0,0,1-.09-.87,3.79,3.79,0,0,1,6.55-2.59,7.45,7.45,0,0,0,2.4-.91,3.77,3.77,0,0,1-1.66,2.09,7.59,7.59,0,0,0,2.18-.59A8.14,8.14,0,0,1,20.21,165.61Z"/><path class="cls-2" d="M15.51,142.55a1.9,1.9,0,0,1,.4,0,2.29,2.29,0,0,1,2.28,2.28V145a2.27,2.27,0,0,1,2.43,2.27v4.73a4.3,4.3,0,0,1-.08.79l-.72,3.83a2.12,2.12,0,0,1-2.09,1.74H11.2a2.47,2.47,0,0,1-1.95-1l-3.64-4.86A2.46,2.46,0,0,1,5.13,151a2.43,2.43,0,0,1,2.43-2.43,2.27,2.27,0,0,1,1.21.32v-4.12A2.28,2.28,0,0,1,11,142.51a1.9,1.9,0,0,1,.4,0,2.27,2.27,0,0,1,4.06,0Zm-3.09,1v6.23h-.3v-5a1.06,1.06,0,0,0-2.13,0v7.44l-1.46-1.95a1.21,1.21,0,0,0-2.18.73,1.19,1.19,0,0,0,.25.73l3.64,4.86a1.21,1.21,0,0,0,1,.48h6.53a.92.92,0,0,0,.9-.74l.72-3.84a3.52,3.52,0,0,0,0-.56v-4.73a1.06,1.06,0,0,0-2.13,0v2.58H17v-5a1.06,1.06,0,0,0-2.13,0v5h-.3v-6.23a1.06,1.06,0,0,0-2.13,0Z"/><path d="M15.51,122.55a1.9,1.9,0,0,1,.4,0,2.29,2.29,0,0,1,2.28,2.28V125a2.27,2.27,0,0,1,2.43,2.27v4.73a4.3,4.3,0,0,1-.08.79l-.72,3.83a2.12,2.12,0,0,1-2.09,1.74H11.2a2.47,2.47,0,0,1-1.95-1l-3.64-4.86A2.46,2.46,0,0,1,5.13,131a2.43,2.43,0,0,1,2.43-2.43,2.27,2.27,0,0,1,1.21.32v-4.12A2.28,2.28,0,0,1,11,122.51a1.9,1.9,0,0,1,.4,0,2.27,2.27,0,0,1,4.06,0Zm-3.09,1v6.23h-.3v-5a1.06,1.06,0,0,0-2.13,0v7.44l-1.46-1.95a1.21,1.21,0,0,0-2.18.73,1.19,1.19,0,0,0,.25.73l3.64,4.86a1.21,1.21,0,0,0,1,.48h6.53a.92.92,0,0,0,.9-.74l.72-3.84a3.52,3.52,0,0,0,0-.56v-4.73a1.06,1.06,0,0,0-2.13,0v2.58H17v-5a1.06,1.06,0,0,0-2.13,0v5h-.3v-6.23a1.06,1.06,0,0,0-2.13,0Z"/></svg>