<svg xmlns="http://www.w3.org/2000/svg" viewBox="0 0 25 200">
  <path fill="none" stroke="#FFF" stroke-linecap="round" stroke-linejoin="round" stroke-miterlimit="10" stroke-width="2" d="M5.3 1.5h14m-14 5h14m-14 6h14m-13 22.1l12.9-12.9m0 12.9L6.3 21.7m-1 22.8l7.4 7.3 7.3-7.3m0 26.6l-7.3-7.3-7.4 7.3"/>
  <circle cx="10.7" cy="88.1" r="5.8" fill="none" stroke="#FFF" stroke-linecap="round" stroke-linejoin="round" stroke-miterlimit="10" stroke-width="2"/>
  <path fill="none" stroke="#FFF" stroke-linecap="round" stroke-linejoin="round" stroke-miterlimit="10" stroke-width="2" d="M16.2 92.5l2.7 2.7"/>
  <path d="M5.5 103.9c-1.7 1.7-1.7 4.6 0 6.3L13 118c2.5-2.6 5-5.2 7.6-7.7 1.7-1.7 1.7-4.6 0-6.3-1.7-1.7-4.4-1.7-6.2 0l-1.4 1.4-1.4-1.4c-1.7-1.8-4.4-1.8-6.1-.1"/>
  <path fill="#C13832" d="M5.5 123.9c-1.7 1.7-1.7 4.6 0 6.3L13 138c2.5-2.6 5-5.2 7.6-7.7 1.7-1.7 1.7-4.6 0-6.3-1.7-1.7-4.4-1.7-6.2 0l-1.4 1.4-1.4-1.4c-1.7-1.8-4.4-1.8-6.1-.1"/>
  <path fill="none" stroke="#000" stroke-linecap="round" stroke-linejoin="round" stroke-miterlimit="10" stroke-width="2" d="M20.4 190.3l-7.3-7.3-7.4 7.3m7.3-.8v5.3"/>
  <path fill="#231F20" d="M70.7 91.6s.1 0 .2-.1c-.2 0-.2 0-.2.1z"/>
  <path d="M22.2 149.3c0-.2-.1-.3-.1-.3l-.2.2c0-.4-.1-.8-.2-1.2-.1-.5-.3-1-.6-1.4-.1-.3-.3-.6-.5-.9-.1-.1-.1-.2-.2-.3-.3-.6-.7-.9-1.2-1.5-.3-.5-.5-1-.6-1.6-.1.3-.2.7-.3 1-.5-.5-.9-.8-1.1-1-1.2-1.1-1.1-1.7-1.1-1.7s-2.2 2.5-1.3 5.1c.3.9.9 1.6 1.7 2.2.9.8 1.9 1.4 2.5 2.9-.4-.8-1.1-1.5-1.9-2 .2.6.4 1.2.4 1.8 0 2.3-1.9 4.2-4.2 4.2-.3 0-.6 0-.9-.1-.4-.1-.7-.2-1-.4-.5-.3-.9-.7-1.3-1.2h.1c.2.1.4.1.5.1.7.2 1.5.1 2.1-.3.7-.4 1.1-.6 1.4-.5.3.1.6-.2.3-.5-.4-.5-1-.8-1.7-.7-.7.1-1.3.6-2.2.1-.1 0-.1-.1-.2-.1s.2.1.1 0l-.6-.3h.1l-.6-.6c-.2-.3-.2-.6 0-.9.1-.1.2-.3.4-.3.1.1.2.1.2.1l-.1-.1c.1 0 .3.2.4.2.1 0 .1.1.2.2v-.1c0-.1-.1-.2-.2-.3.1 0 .2.1.3.2.1-.2.1-.4.1-.5v-.3c0-.1 0-.1.1 0v-.1-.1l.1-.1c.3-.2.6-.3.9-.4.2-.1.4-.2.5-.2.1 0 .1-.1.2-.1.2-.2.3-.4.4-.7v-.1c0-.1-.3-.2-1.5-.3-.4-.1-.8-.4-.9-.8v0c.2-.6.6-1.1 1.2-1.5h-.1c.1-.1.2-.1.3-.1.1 0-.2-.1-.5-.1-.2 0-.3 0-.4.1.1-.1.2-.1.2-.1l-.9.3v-.1c-.2.1-.4.2-.6.4v-.1l-.3.3c-.7-.3-1.4-.3-2.1-.2l-.4-.4c0-.1-.1-.1-.1-.2s-.1-.1-.1-.2c0 0 0 .1 0 0-.1-.3-.2-.7-.2-1-.2.1-.3.3-.4.6 0 .1-.1.1-.1.2v-.1c-.1.1-.1.1-.1.2s-.1.1-.1.2v-.1c-.3.6-.4 1.2-.5 1.8v.3c-.2.2-.3.4-.5.7-.5.8-.8 1.6-1 2.5.2-.3.3-.7.5-1-.4 1-.6 2.1-.6 3.3.1-.3.2-.7.3-1-.1 1.3.2 2.6.7 3.8.7 1.7 2 3.1 3.5 4 .6.4 1.3.8 2.1 1 .1 0 .2.1.3.1h-.1c.9.3 1.8.4 2.7.4 3.2 0 4.3-1.2 4.4-1.3.2-.1.3-.3.4-.5.1 0 .1-.1.2-.1h.1c.5-.2.9-.5 1.4-.8.6-.4 1.1-1.1 1.3-1.8.1-.3.1-.6 0-.8 0-.1.1-.1.1-.2.7-1.1 1.1-2.4 1.1-3.7v-.1-1z"/>
  <path fill="#FF9400" d="M22.2 169.3c0-.2-.1-.3-.1-.3l-.2.2c0-.4-.1-.8-.2-1.2-.1-.5-.3-1-.6-1.4-.1-.3-.3-.6-.5-.9-.1-.1-.1-.2-.2-.3-.3-.6-.7-.9-1.2-1.5-.3-.5-.5-1-.6-1.6-.1.3-.2.7-.3 1-.5-.5-.9-.8-1.1-1-1.2-1.1-1.1-1.7-1.1-1.7s-2.2 2.5-1.3 5.1c.3.9.9 1.6 1.7 2.2.9.8 1.9 1.4 2.5 2.9-.4-.8-1.1-1.5-1.9-2 .2.6.4 1.2.4 1.8 0 2.3-1.9 4.2-4.2 4.2-.3 0-.6 0-.9-.1-.4-.1-.7-.2-1-.4-.5-.3-.9-.7-1.3-1.2h.1c.2.1.4.1.5.1.7.2 1.5.1 2.1-.3.7-.4 1.1-.6 1.4-.5.3.1.6-.2.3-.5-.4-.5-1-.8-1.7-.7-.7.1-1.3.6-2.2.1-.1 0-.1-.1-.2-.1s.2.1.1 0l-.6-.3h.1l-.6-.6c-.2-.3-.2-.6 0-.9.1-.1.2-.3.4-.3.1.1.2.1.2.1l-.1-.1c.1 0 .3.2.4.2.1 0 .1.1.2.2v-.1c0-.1-.1-.2-.2-.3.1 0 .2.1.3.2.1-.2.1-.4.1-.5v-.3c0-.1 0-.1.1 0v-.1-.1l.1-.1c.3-.2.6-.3.9-.4.2-.1.4-.2.5-.2.1 0 .1-.1.2-.1.2-.2.3-.4.4-.7v-.1c0-.1-.3-.2-1.5-.3-.4-.1-.8-.4-.9-.8v0c.2-.6.6-1.1 1.2-1.5h-.1c.1-.1.2-.1.3-.1.1 0-.2-.1-.5-.1-.2 0-.3 0-.4.1.1-.1.2-.1.2-.1l-.9.3v-.1c-.2.1-.4.2-.6.4v-.1l-.3.3c-.7-.3-1.4-.3-2.1-.2l-.4-.4c0-.1-.1-.1-.1-.2s-.1-.1-.1-.2c0 0 0 .1 0 0-.1-.3-.2-.7-.2-1-.2.1-.3.3-.4.6 0 .1-.1.1-.1.2v-.1c-.1.1-.1.1-.1.2s-.1.1-.1.2v-.1c-.3.6-.4 1.2-.5 1.8v.3c-.2.2-.3.4-.5.7-.5.8-.8 1.6-1 2.5.2-.3.3-.7.5-1-.4 1-.6 2.1-.6 3.3.1-.3.2-.7.3-1-.1 1.3.2 2.6.7 3.8.7 1.7 2 3.1 3.5 4 .6.4 1.3.8 2.1 1 .1 0 .2.1.3.1h-.1c.9.3 1.8.4 2.7.4 3.2 0 4.3-1.2 4.4-1.3.2-.1.3-.3.4-.5.1 0 .1-.1.2-.1h.1c.5-.2.9-.5 1.4-.8.6-.4 1.1-1.1 1.3-1.8.1-.3.1-.6 0-.8 0-.1.1-.1.1-.2.7-1.1 1.1-2.4 1.1-3.7v-.1-1z"/>
</svg>
